M48
; DRILL file {KiCad 5.1.4+dfsg1-1} date Thu 30 Jul 2020 04:18:21 PM CDT
; FORMAT={-:-/ absolute / inch / decimal}
; #@! TF.CreationDate,2020-07-30T16:18:21-05:00
; #@! TF.GenerationSoftware,Kicad,Pcbnew,5.1.4+dfsg1-1
; #@! TF.FileFunction,Plated,1,2,PTH
FMAT,2
INCH
T1C0.0157
T2C0.0256
T3C0.0480
%
G90
G05
T1
X2.145Y-6.81
X2.165Y-6.98
X2.205Y-6.875
X2.295Y-6.795
X2.475Y-6.925
X2.5Y-7.025
X2.535Y-6.865
X2.78Y-6.75
X3.07Y-6.9
X3.235Y-6.67
X3.235Y-6.82
X3.245Y-6.9
X3.275Y-6.7736
X3.3798Y-6.8398
X3.435Y-6.655
X3.55Y-3.99
X3.55Y-6.745
X3.58Y-3.44
X3.6Y-3.65
X3.63Y-4.38
X3.63Y-4.88
X3.63Y-5.4
X3.63Y-5.89
X3.63Y-6.33
X3.63Y-6.82
X3.665Y-3.595
X3.685Y-6.655
X3.73Y-3.525
X3.73Y-4.65
X3.73Y-5.63
X3.75Y-3.61
X3.77Y-3.79
X3.775Y-6.7735
X3.785Y-3.36
X3.785Y-3.93
X3.815Y-4.54
X3.815Y-6.745
X3.83Y-6.13
X3.8325Y-6.1729
X3.845Y-6.235
X3.88Y-3.7
X3.89Y-6.19
X4.005Y-3.36
X4.01Y-3.93
X4.01Y-5.28
X4.07Y-5.49
X4.1Y-3.56
X4.105Y-4.69
X4.16Y-3.5
X4.19Y-4.78
X4.225Y-3.36
X4.23Y-3.93
X4.265Y-6.485
X4.2885Y-5.155
X4.313Y-6.437
X4.365Y-6.485
X4.38Y-5.28
X4.39Y-4.77
X4.39Y-4.94
X4.42Y-5.79
X4.44Y-3.93
X4.44Y-3.36
X4.44Y-5.63
X4.51Y-4.56
X4.55Y-4.54
X4.565Y-4.655
X4.57Y-5.93
X4.58Y-4.85
X4.58Y-5.35
X4.59Y-4.44
X4.665Y-3.36
X4.67Y-3.93
X4.715Y-4.705
X4.745Y-5.05
X4.75Y-4.73
X4.8Y-4.685
X4.802Y-5.542
X4.818Y-5.4672
X4.8198Y-5.0102
X4.8298Y-5.5698
X4.83Y-4.73
X4.83Y-4.85
X4.86Y-5.47
X4.925Y-4.585
X4.98Y-4.44
X4.98Y-5.76
X5.005Y-4.85
X5.005Y-5.93
X5.01Y-5.36
X5.02Y-3.32
X5.14Y-3.96
X5.175Y-5.54
X5.22Y-4.44
X5.22Y-5.68
X5.225Y-4.85
X5.225Y-5.93
X5.23Y-5.36
X5.25Y-3.32
X5.31Y-3.73
X5.35Y-5.71
X5.36Y-3.93
X5.36Y-5.56
X5.42Y-5.57
X5.44Y-4.44
X5.445Y-5.93
X5.445Y-4.85
X5.45Y-5.36
X5.47Y-3.32
X5.525Y-5.1565
X5.5405Y-5.2313
X5.55Y-3.5935
X5.55Y-3.78
X5.5502Y-5.7598
X5.56Y-3.675
X5.575Y-5.58
X5.5798Y-5.225
X5.58Y-3.93
X5.6143Y-5.5821
X5.615Y-5.205
X5.65Y-3.8
X5.66Y-4.44
X5.66Y-4.85
X5.665Y-5.93
X5.67Y-5.36
X5.68Y-5.54
X5.69Y-3.32
X5.695Y-4.67
X5.7148Y-6.4152
X5.7256Y-5.5902
X5.735Y-3.76
X5.74Y-5.105
X5.74Y-5.54
X5.78Y-3.63
X5.7816Y-4.0584
X5.785Y-6.0917
X5.79Y-4.99
X5.8Y-3.93
X5.805Y-6.55
X5.82Y-5.9992
X5.82Y-6.39
X5.82Y-6.84
X5.84Y-3.5
X5.84Y-4.52
X5.855Y-4.145
X5.855Y-4.0584
X5.86Y-6.58
X5.87Y-4.44
X5.875Y-5.76
X5.88Y-5.68
X5.88Y-6.9535
X5.885Y-4.85
X5.885Y-6.735
X5.89Y-5.36
X5.89Y-5.93
X5.91Y-3.32
X5.915Y-6.45
X5.9226Y-6.9737
X5.94Y-4.55
X5.97Y-6.96
X5.985Y-4.52
X5.99Y-7.0
X6.02Y-3.93
X6.0325Y-6.5871
X6.0448Y-6.3798
X6.05Y-6.47
X6.095Y-4.435
X6.1Y-4.64
X6.1Y-6.465
X6.12Y-5.45
X6.15Y-6.58
X6.16Y-6.7115
X6.165Y-6.925
X6.185Y-5.71
X6.195Y-6.96
X6.22Y-6.59
X6.23Y-6.995
X6.26Y-7.03
X6.33Y-5.62
X6.35Y-4.44
X6.35Y-5.93
X6.3587Y-6.7237
X6.36Y-3.36
X6.36Y-4.85
X6.36Y-5.36
X6.395Y-3.53
X6.43Y-6.96
X6.44Y-5.7603
X6.46Y-3.73
X6.48Y-4.62
X6.48Y-3.95
X6.5053Y-5.7419
X6.5465Y-5.7428
X6.5503Y-5.7004
X6.57Y-4.44
X6.58Y-3.36
X6.58Y-5.36
X6.58Y-5.93
X6.58Y-4.85
X6.605Y-3.6029
X6.6202Y-5.5502
X6.625Y-5.66
X6.63Y-3.54
X6.64Y-3.67
X6.7Y-3.61
X6.705Y-3.93
X6.72Y-4.785
X6.7603Y-5.58
X6.79Y-4.44
X6.79Y-4.85
X6.79Y-6.64
X6.795Y-5.93
X6.8Y-3.36
X6.8Y-5.36
X6.85Y-3.56
X6.85Y-5.565
X6.85Y-5.7
X6.87Y-3.712
X6.8885Y-4.695
X6.89Y-5.71
X6.9118Y-3.9081
X6.9218Y-5.7428
X6.95Y-6.45
X6.9739Y-3.48
X7.01Y-4.85
X7.0159Y-4.4274
X7.02Y-3.3613
X7.02Y-4.7097
X7.02Y-5.36
X7.02Y-5.93
X7.0653Y-4.5849
X7.145Y-3.93
X7.235Y-5.93
X7.235Y-4.44
X7.235Y-3.36
X7.24Y-3.93
X7.24Y-4.85
X7.24Y-5.36
X7.27Y-6.59
X7.355Y-6.56
X7.4Y-5.535
X7.51Y-6.69
X7.51Y-6.84
X7.55Y-6.49
X7.62Y-6.59
X7.68Y-5.76
X7.69Y-4.44
X7.69Y-6.53
X7.7Y-5.93
X7.7Y-3.93
X7.71Y-3.36
X7.71Y-4.85
X7.71Y-5.36
X7.74Y-3.7615
X7.8675Y-3.3929
X7.87Y-3.45
X7.87Y-6.49
X7.91Y-3.66
X7.91Y-4.44
X7.92Y-6.59
X7.925Y-3.93
X7.93Y-3.36
X7.93Y-4.85
X7.93Y-5.36
X7.93Y-5.93
X7.935Y-4.7535
X7.96Y-5.775
X8.0059Y-6.5559
X8.01Y-4.035
X8.035Y-3.755
X8.0423Y-3.6927
X8.08Y-3.597
X8.0902Y-5.6602
X8.1Y-6.05
X8.1Y-6.185
X8.1Y-6.85
X8.11Y-6.7
X8.12Y-3.44
X8.12Y-4.5
X8.12Y-5.57
X8.13Y-4.44
X8.1307Y-3.7407
X8.14Y-3.93
X8.145Y-5.93
X8.15Y-3.36
X8.15Y-5.36
X8.15Y-6.49
X8.15Y-4.85
X8.215Y-4.675
X8.2548Y-3.5402
X8.26Y-5.495
X8.26Y-6.59
X8.285Y-3.595
X8.315Y-3.815
X8.3393Y-4.5597
X8.34Y-5.66
X8.3427Y-4.7973
X8.345Y-5.765
X8.36Y-3.93
X8.36Y-4.44
X8.36Y-6.55
X8.37Y-3.36
X8.37Y-4.85
X8.37Y-5.36
X8.37Y-5.93
X8.4235Y-4.7535
X8.43Y-4.59
X8.44Y-3.56
X8.45Y-5.505
X8.52Y-4.75
X8.52Y-6.2
X8.53Y-6.49
X8.535Y-5.575
X8.545Y-5.765
X8.55Y-4.51
X8.565Y-5.015
X8.57Y-4.44
X8.58Y-5.93
X8.58Y-6.59
X8.585Y-3.93
X8.59Y-3.36
X8.59Y-4.85
X8.59Y-5.36
X8.65Y-5.115
X8.67Y-6.45
X8.8Y-6.7
X8.8Y-6.83
X8.8007Y-3.7407
X8.81Y-5.465
X8.82Y-6.49
X8.85Y-6.59
X8.93Y-3.5315
X8.93Y-6.46
X8.95Y-5.36
X8.97Y-4.5185
X8.97Y-4.67
X9.02Y-3.46
X9.04Y-5.255
X9.05Y-4.44
X9.055Y-4.85
X9.06Y-3.36
X9.06Y-3.93
X9.06Y-5.36
X9.06Y-5.585
X9.06Y-5.93
X9.0815Y-5.1666
X9.1Y-6.49
X9.11Y-5.08
X9.11Y-6.1715
X9.155Y-5.165
X9.175Y-5.255
X9.19Y-6.59
X9.23Y-3.45
X9.24Y-4.56
X9.2452Y-4.6298
X9.25Y-6.45
X9.275Y-4.44
X9.275Y-4.85
X9.28Y-3.36
X9.28Y-3.93
X9.28Y-5.36
X9.28Y-5.93
X9.36Y-6.69
X9.36Y-6.83
X9.3854Y-4.7008
X9.39Y-3.56
X9.41Y-6.49
X9.43Y-3.68
X9.44Y-5.66
X9.45Y-6.59
X9.49Y-4.44
X9.495Y-3.36
X9.495Y-4.85
X9.495Y-3.93
X9.5Y-5.36
X9.5Y-5.93
X9.5Y-6.48
X9.525Y-4.685
X9.5798Y-3.5902
X9.6491Y-3.7612
X9.65Y-3.72
X9.67Y-3.45
X9.67Y-6.49
X9.6748Y-3.6608
X9.7Y-4.44
X9.715Y-4.85
X9.715Y-3.36
X9.715Y-3.93
X9.72Y-5.36
X9.72Y-5.93
X9.73Y-5.756
X9.755Y-5.615
X9.765Y-5.565
X9.9Y-5.72
X9.93Y-4.44
X9.935Y-4.85
X9.94Y-3.93
X9.94Y-3.36
X9.94Y-5.36
X9.94Y-5.93
X9.965Y-3.59
X9.99Y-3.74
X9.9977Y-5.7679
X10.08Y-5.47
X10.19Y-6.74
X10.25Y-3.7252
X10.25Y-3.855
X10.26Y-6.57
X10.33Y-6.45
X10.34Y-6.62
X10.36Y-6.8
X10.365Y-3.77
X10.38Y-4.44
X10.4Y-3.5029
X10.4Y-4.85
X10.405Y-6.41
X10.41Y-3.36
X10.41Y-3.93
X10.41Y-5.36
X10.41Y-5.93
X10.41Y-6.93
X10.4874Y-3.6626
X10.61Y-4.85
X10.62Y-4.565
X10.625Y-3.36
X10.625Y-4.44
X10.63Y-3.93
X10.63Y-5.36
X10.63Y-5.93
X10.63Y-6.44
X10.63Y-6.93
X10.64Y-5.61
X10.64Y-6.57
X10.675Y-4.675
X10.69Y-5.76
X10.725Y-3.5315
X10.7298Y-3.7898
X10.765Y-3.62
X10.8Y-3.515
X10.8Y-6.69
X10.81Y-6.54
X10.83Y-6.7315
X10.845Y-4.44
X10.845Y-4.85
X10.85Y-3.36
X10.85Y-3.93
X10.85Y-5.36
X10.85Y-5.93
X10.85Y-6.44
X10.85Y-6.93
X10.89Y-4.59
X10.89Y-4.795
X10.92Y-6.72
X11.0Y-4.51
X11.065Y-4.44
X11.07Y-3.36
X11.07Y-3.93
X11.07Y-4.85
X11.07Y-5.36
X11.07Y-5.93
X11.07Y-6.44
X11.07Y-6.93
X11.16Y-5.725
X11.2477Y-5.5877
X11.285Y-3.36
X11.29Y-3.93
X11.29Y-4.44
X11.29Y-4.85
X11.29Y-5.36
X11.29Y-5.93
X11.29Y-6.44
X11.29Y-6.93
X11.32Y-4.59
X11.375Y-4.72
X11.39Y-5.665
X11.39Y-5.73
X11.4048Y-5.5648
X11.505Y-5.505
X11.51Y-4.59
X11.545Y-3.56
X11.62Y-4.45
X11.62Y-4.544
X11.66Y-3.56
X11.67Y-3.7
X11.69Y-4.23
X11.715Y-3.525
X11.745Y-3.555
X11.75Y-4.44
X11.75Y-4.85
X11.75Y-6.93
X11.7598Y-3.6102
X11.76Y-3.36
X11.76Y-3.93
X11.76Y-5.36
X11.76Y-5.93
X11.76Y-6.44
X11.8477Y-4.5675
X11.8558Y-4.67
X11.8951Y-4.59
X11.935Y-6.743
X11.96Y-4.85
X11.97Y-3.36
X11.97Y-4.44
X11.97Y-6.93
X11.98Y-3.93
X11.98Y-5.36
X11.98Y-5.93
X11.98Y-6.44
X12.03Y-4.75
X12.06Y-3.5
X12.08Y-6.2
X12.11Y-3.975
X12.13Y-4.125
X12.13Y-4.755
X12.16Y-3.975
X12.16Y-6.69
X12.18Y-3.36
X12.19Y-4.85
X12.19Y-6.93
X12.2Y-4.44
X12.2Y-5.36
X12.2Y-5.93
X12.2Y-6.44
X12.2035Y-3.93
X12.26Y-3.51
X12.26Y-3.68
X12.31Y-6.74
X12.345Y-4.2
X12.355Y-4.73
X12.38Y-3.78
X12.39Y-5.77
X12.41Y-3.36
X12.41Y-4.85
X12.41Y-6.93
X12.42Y-3.93
X12.42Y-4.44
X12.42Y-5.36
X12.42Y-5.93
X12.42Y-6.44
X12.42Y-6.6
X12.465Y-3.645
X12.525Y-3.62
X12.56Y-4.7265
X12.565Y-6.5
X12.57Y-4.67
X12.575Y-5.605
X12.58Y-4.2015
X12.58Y-4.59
X12.62Y-4.85
X12.63Y-3.36
X12.63Y-4.46
X12.63Y-6.93
X12.64Y-3.93
X12.64Y-5.36
X12.64Y-5.93
X12.64Y-6.44
X12.68Y-3.5885
X12.7Y-3.72
X12.73Y-5.2
X12.76Y-5.7
X12.79Y-4.6
X12.7952Y-4.7698
X12.81Y-5.5
X12.81Y-5.57
X12.84Y-5.8
X12.89Y-3.52
X12.93Y-6.33
X12.93Y-6.46
X12.94Y-3.74
X12.94Y-5.685
X13.03Y-5.76
X13.04Y-3.36
X13.05Y-5.36
X13.05Y-5.94
X13.05Y-6.43
X13.05Y-6.93
X13.06Y-4.43
X13.07Y-4.81
X13.07Y-5.685
X13.1085Y-3.5885
X13.1327Y-5.7523
X13.14Y-3.56
X13.14Y-6.74
X13.15Y-3.73
X13.18Y-6.28
X13.19Y-5.49
X13.2Y-3.73
X13.2Y-5.7585
X13.2Y-6.42
X13.2002Y-3.4898
X13.22Y-4.01
X13.235Y-6.645
X13.24Y-5.99
X13.24Y-6.82
X13.25Y-3.6585
X13.27Y-5.41
X13.28Y-4.395
X13.28Y-5.65
X13.2838Y-6.3938
X13.29Y-5.77
X13.305Y-5.305
X13.31Y-5.41
X13.34Y-6.78
X13.35Y-5.82
X13.37Y-5.62
X13.3745Y-5.3741
X13.41Y-6.65
X13.43Y-3.67
X13.43Y-3.7957
X13.49Y-6.82
X13.51Y-4.49
X13.52Y-3.52
X13.55Y-5.825
X13.62Y-5.99
X13.67Y-6.61
X13.68Y-4.01
X13.69Y-6.41
X13.7Y-3.71
X13.7Y-6.78
X13.75Y-3.88
X13.81Y-5.71
X13.835Y-5.755
X13.85Y-4.23
X13.8689Y-6.1715
X13.87Y-3.91
X13.875Y-4.4
X13.895Y-3.415
X13.905Y-4.895
X13.905Y-5.39
X13.905Y-5.89
X13.905Y-6.38
X13.905Y-6.985
X13.925Y-6.655
X13.95Y-3.655
X13.95Y-4.65
X13.95Y-5.635
T2
X5.285Y-6.445
X5.335Y-6.445
X5.385Y-6.445
X5.435Y-6.445
T3
X2.31Y-5.88
X2.315Y-6.175
X2.41Y-6.08
X2.5092Y-6.18
X2.61Y-5.88
X2.36Y-4.745
X2.365Y-5.04
X2.46Y-4.945
X2.5592Y-5.045
X2.66Y-4.745
X2.9832Y-5.8813
X2.9882Y-6.1763
X3.0832Y-6.0813
X3.1824Y-6.1813
X3.2832Y-5.8813
X2.965Y-4.745
X2.97Y-5.04
X3.065Y-4.945
X3.1642Y-5.045
X3.265Y-4.745
T0
M30
